<svg version="1.1" id="Layer_1" xmlns="http://www.w3.org/2000/svg" x="0" y="0" viewBox="0 0 69.27 31.5" xml:space="preserve"><style>.st4{fill-rule:evenodd;clip-rule:evenodd;fill:#000002}.st6{fill:#223d90}</style><path d="M3.01 21c-.12-.31.03-.66.34-.79.31-.12.66.03.79.34l.22.56a4.832 4.832 0 0 0 3.79 3.02c1.32.2 2.6-.16 3.6-.9s1.71-1.86 1.91-3.18c.16-1.09-.05-2.16-.55-3.07-.51-.91-1.3-1.66-2.31-2.1l-.95-.41a2.442 2.442 0 0 1-1.43-2.58c.1-.66.46-1.22.96-1.59.5-.37 1.14-.55 1.8-.45.19.03.38.08.56.15.18.07.35.17.51.28.27.2.33.57.13.85-.2.27-.57.33-.84.13a1.23 1.23 0 0 0-.53-.22c-.33-.05-.65.04-.9.22s-.43.46-.48.79c-.04.27.01.54.14.77.13.23.33.42.58.53l.95.41a6.079 6.079 0 0 1 3.58 6.45 6.034 6.034 0 0 1-2.39 3.97A6.073 6.073 0 0 1 8 25.31c-1.07-.16-2.06-.6-2.88-1.25a6.051 6.051 0 0 1-1.87-2.52L3.01 21z" fill-rule="evenodd" clip-rule="evenodd" fill="#0090d0" stroke="#000002" stroke-width=".404" stroke-miterlimit="2.613"/><path d="M4.14 20.55a.602.602 0 1 1 1.12-.44l.22.56c.24.6.63 1.12 1.12 1.52.49.39 1.08.65 1.72.75.99.15 1.95-.12 2.7-.68.75-.55 1.29-1.39 1.44-2.38.12-.81-.04-1.62-.42-2.3-.38-.68-.98-1.24-1.73-1.57l-.95-.42c-.75-.33-1.35-.89-1.73-1.57-.38-.68-.54-1.48-.42-2.29.15-.99.69-1.83 1.43-2.38.75-.55 1.71-.82 2.7-.68.32.05.63.14.92.26.29.13.56.29.82.49.26.21.3.59.1.85-.21.26-.59.3-.85.1-.16-.13-.35-.24-.55-.33-.19-.08-.4-.14-.61-.18-.66-.1-1.3.08-1.8.45s-.86.93-.96 1.59c-.08.54.03 1.08.28 1.53.25.45.65.83 1.15 1.05l.95.42a4.872 4.872 0 0 1 2.86 5.16c-.2 1.32-.91 2.44-1.91 3.18-1 .74-2.28 1.1-3.6.9-.86-.13-1.64-.48-2.3-1a4.713 4.713 0 0 1-1.49-2.02l-.21-.57z" fill-rule="evenodd" clip-rule="evenodd" fill="#0069b4" stroke="#000002" stroke-width=".404" stroke-miterlimit="2.613"/><path d="M14.75 7.65c.25.22.28.6.07.85-.22.25-.6.28-.85.07-.34-.29-.73-.54-1.14-.72-.4-.18-.84-.31-1.29-.38-1.32-.2-2.6.16-3.6.9a4.843 4.843 0 0 0-1.35 6.25c.5.91 1.3 1.66 2.31 2.09l.95.41c.5.22.9.59 1.15 1.05.25.45.36.99.28 1.53-.1.66-.46 1.22-.96 1.59-.5.37-1.14.55-1.8.45a2.44 2.44 0 0 1-1.9-1.51.602.602 0 1 1 1.12-.44c.08.2.21.38.37.51s.36.22.58.25c.33.05.65-.04.9-.23.25-.18.43-.46.48-.8a1.203 1.203 0 0 0-.72-1.29l-.95-.41a6.033 6.033 0 0 1-2.88-2.62c-.63-1.14-.9-2.48-.69-3.83A6.034 6.034 0 0 1 7.22 7.4a6.086 6.086 0 0 1 4.5-1.13c.57.08 1.11.25 1.62.48.51.23.99.53 1.41.9z" fill-rule="evenodd" clip-rule="evenodd" fill="#223d90" stroke="#000002" stroke-width=".404" stroke-miterlimit="2.613"/><path d="M13.92 8.54a.603.603 0 1 1-.77.93c-.26-.21-.54-.39-.84-.53a3.598 3.598 0 0 0-3.65.4c-.75.55-1.29 1.39-1.44 2.38-.12.81.04 1.62.42 2.3.38.68.98 1.24 1.73 1.57.22.09.73.36.95.42.75.33 1.35.89 1.73 1.57.38.68.54 1.48.42 2.29-.15.99-.69 1.83-1.43 2.38-.75.55-1.71.82-2.7.68-.64-.1-1.23-.36-1.72-.75s-.88-.91-1.12-1.51a.602.602 0 1 1 1.12-.44c.16.4.42.75.75 1.01s.72.43 1.15.5c.66.1 1.3-.08 1.8-.45s.86-.93.96-1.59a2.43 2.43 0 0 0-.28-1.53c-.25-.45-.65-.83-1.15-1.05l-.96-.42a4.872 4.872 0 0 1-2.86-5.16c.2-1.32.91-2.44 1.91-3.18 1-.74 2.28-1.1 3.59-.9.44.07.87.19 1.27.37.41.19.79.43 1.12.71z" fill-rule="evenodd" clip-rule="evenodd" fill="#0d4ba0" stroke="#000002" stroke-width=".404" stroke-miterlimit="2.613"/><path class="st4" d="M2.02 11.87s.16-.06.28 0c.12.06.81 1.21.81 1.21s.58.89.98 2.49.88 1.82.88 1.82.55.35 1.15.18c.6-.17.7-.13.7-.13l.05.13c-1.5.59-3.01 1.19-4.51 1.78l-.05-.13s.05-.1.6-.38c.56-.29.71-.92.71-.92s.19-.48-.6-1.93c-.8-1.45-.98-2.49-.98-2.49s-.28-1.31-.23-1.44c.05-.13.21-.19.21-.19zm.37.89c-.1.04-.09.31.03.61s.29.51.39.47c.1-.04.08-.31-.03-.61-.11-.29-.29-.51-.39-.47z"/><path transform="rotate(-21.518 5.121 19.733)" fill-rule="evenodd" clip-rule="evenodd" fill="#939598" d="M2.7 18.72h4.85v2.02H2.7z"/><path class="st4" d="M2.35 19.31l4.51-1.78c.21-.08.44.02.52.23l.01.03.73 1.84c.08.21-.02.44-.23.52l-4.51 1.78a.399.399 0 0 1-.52-.23l-.74-1.88c-.08-.2.02-.43.23-.51zm.15.37l4.51-1.78.74 1.88-4.51 1.78-.74-1.88z"/><path class="st4" d="M2.79 20.43c-.1.04-.22-.01-.26-.11-.04-.1.01-.22.11-.26l.15.37zm2.13-.84l-2.13.84-.15-.38 2.13-.84.15.38zm-.15-.37c.1-.04.22.01.26.11.04.1-.01.22-.11.26l-.15-.37zm1 .04c-.1.04-.22-.01-.26-.11-.04-.1.01-.22.11-.26l.15.37zm1.53-.6l-1.53.6-.15-.38 1.53-.6.15.38zm-.15-.38c.1-.04.22.01.26.11.04.1-.01.22-.11.26l-.15-.37zm-4.06 2.91c-.1.04-.22-.01-.26-.11-.04-.1.01-.22.11-.26l.15.37zm1.06-.42l-1.07.42-.15-.38L4 20.39l.15.38zm-.14-.38c.1-.04.22.01.26.11.04.1-.01.22-.11.26l-.15-.37zm.62.19c-.1.04-.22-.01-.26-.11-.04-.1.01-.22.11-.26l.15.37zm1.72-.68l-1.72.68-.15-.38 1.72-.68.15.38zm-.15-.37c.1-.04.22.01.26.11.04.1-.01.22-.11.26l-.15-.37zm.63.18c-.1.04-.22-.01-.26-.11-.04-.1.01-.22.11-.26l.15.37zm.77-.3l-.77.3-.15-.38.77-.3.15.38zm-.15-.37c.1-.04.22.01.26.11.04.1-.01.22-.11.26l-.15-.37z"/><g><path d="M19.79 23.57H18.6v2.11h-.79v-5.36h1.99c1.02 0 1.68.69 1.68 1.62s-.66 1.63-1.69 1.63zm-.04-2.52H18.6v1.78h1.15c.55 0 .93-.32.93-.89 0-.56-.38-.89-.93-.89zM25.07 25.67l-.36-1.08h-2.07l-.36 1.08h-.85l1.92-5.36H24l1.92 5.36h-.85zm-1.37-4.14l-.82 2.38h1.61l-.79-2.38zM26.65 25.67v-5.36h.79v5.36h-.79zM32.03 25.67l-2.42-3.77v3.77h-.79v-5.36h.73l2.42 3.76v-3.76h.79v5.36h-.73zM35.89 21.05v4.63h-.79v-4.63h-1.44v-.73h3.68v.73h-1.45zM41.69 25.72c-.54 0-1.02-.2-1.38-.57-.51-.53-.51-1.12-.51-2.15 0-1.03-.01-1.62.51-2.15.36-.37.83-.57 1.38-.57.96 0 1.68.58 1.87 1.65h-.81c-.13-.55-.48-.93-1.06-.93-.31 0-.59.12-.77.32-.26.29-.32.59-.32 1.67s.06 1.38.32 1.67c.18.2.46.32.77.32.58 0 .94-.38 1.07-.92h.8c-.18 1.08-.92 1.66-1.87 1.66zM44.61 25.67v-5.36h3.35v.73h-2.55v1.56h2.18v.72h-2.18v1.61h2.55v.73h-3.35zM52.26 25.67l-2.42-3.77v3.77h-.79v-5.36h.73l2.42 3.76v-3.76h.79v5.36h-.73zM56.12 21.05v4.63h-.79v-4.63h-1.44v-.73h3.68v.73h-1.45zM58.46 25.67v-5.36h3.35v.73h-2.55v1.56h2.18v.72h-2.18v1.61h2.55v.73h-3.35zM65.78 25.67l-1.1-2.26h-.99v2.26h-.79v-5.36h2.03c.99 0 1.62.66 1.62 1.57 0 .77-.46 1.26-1.04 1.42l1.21 2.37h-.94zm-.92-4.62h-1.18v1.68h1.18c.53 0 .89-.31.89-.83 0-.54-.36-.85-.89-.85z"/><g><path class="st6" d="M20.32 16.2c-1.5 0-2.72-.28-3.7-1.32l1.54-1.57c.51.52 1.4.7 2.18.7.95 0 1.4-.32 1.4-.9 0-.24-.05-.44-.19-.59-.12-.13-.33-.22-.64-.27l-1.18-.17c-.86-.13-1.52-.42-1.96-.89-.45-.48-.67-1.15-.67-2.01 0-1.83 1.34-3.16 3.57-3.16 1.4 0 2.46.34 3.29 1.19l-1.51 1.55c-.62-.63-1.43-.59-1.85-.59-.84 0-1.18.49-1.18.93 0 .13.04.31.19.46.12.13.33.25.67.29l1.18.17c.88.13 1.51.41 1.92.83.52.52.73 1.26.73 2.19-.01 2.05-1.73 3.16-3.79 3.16zM30.63 16.11v-3.96h-2.55v3.96h-2.4v-10h2.4v3.85h2.55V6.11h2.4v10.01h-2.4zM35.01 16.11v-10h6.64V8.3h-4.24v1.67h3.62v2.19h-3.62v1.76h4.24v2.19h-6.64zM43.35 16.11v-10h2.4v7.81h4.1v2.19h-6.5zM55.51 16.11h-4.25v-10h4.05c2.03 0 3.11 1.17 3.11 2.9 0 1.14-.77 1.77-1.07 1.98.4.25 1.21.77 1.21 2.18 0 1.9-1.31 2.94-3.05 2.94zm-.36-7.8h-1.5v1.63h1.5c.66 0 .86-.42.86-.81s-.2-.82-.86-.82zm.13 3.84h-1.62v1.76h1.62c.66 0 .88-.46.88-.89-.01-.42-.23-.87-.88-.87zM64.58 12.04v4.08h-2.4v-4.08l-2.95-5.93h2.62l1.54 3.6 1.52-3.6h2.62l-2.95 5.93z"/></g><path d="M66.72 18.88H17.56c-.3 0-.54-.24-.54-.54s.24-.54.54-.54h49.17c.3 0 .54.24.54.54s-.25.54-.55.54z"/></g></svg>